<svg width="103" height="33" viewBox="0 0 103 33" fill="none" xmlns="http://www.w3.org/2000/svg"><path d="M.876 6.737v25.871H4.59V13.875h.24l7.63 18.696h3.083l7.63-18.684h.24v18.721h3.714V6.738h-4.738l-8.236 20.11h-.303L5.614 6.738H.876ZM40.861 33c4.232 0 7.226-2.084 8.085-5.242l-3.575-.645c-.682 1.832-2.325 2.767-4.472 2.767-3.234 0-5.407-2.097-5.508-5.836h13.795v-1.34c0-7.01-4.194-9.752-8.59-9.752-5.407 0-8.97 4.119-8.97 10.081 0 6.026 3.513 9.967 9.235 9.967Zm-5.457-11.786c.151-2.754 2.147-5.141 5.217-5.141 2.93 0 4.85 2.172 4.864 5.141H35.404ZM67.916 17.942c-.783-3.019-3.145-4.99-7.339-4.99-4.383 0-7.49 2.312-7.49 5.748 0 2.754 1.667 4.586 5.305 5.394l3.284.72c1.87.417 2.741 1.25 2.741 2.463 0 1.504-1.604 2.679-4.08 2.679-2.261 0-3.714-.973-4.169-2.88l-3.65.555C53.149 31.067 56.004 33 60.362 33c4.687 0 7.934-2.489 7.934-6 0-2.742-1.744-4.434-5.306-5.256l-3.082-.707c-2.135-.505-3.057-1.225-3.045-2.539-.012-1.49 1.605-2.552 3.752-2.552 2.35 0 3.436 1.301 3.878 2.603l3.424-.607ZM81.506 13.205h-3.98V8.556H73.75v4.65h-2.843v3.03h2.843v11.458c-.013 3.525 2.678 5.23 5.659 5.167 1.2-.013 2.008-.24 2.45-.404l-.682-3.12c-.252.05-.72.164-1.326.164-1.225 0-2.324-.404-2.324-2.59V16.237h3.979v-3.032ZM93.649 33c5.47 0 9.044-4.005 9.044-10.005 0-6.038-3.575-10.043-9.044-10.043-5.47 0-9.045 4.005-9.045 10.043 0 6 3.575 10.005 9.045 10.005Zm.012-3.17c-3.575 0-5.242-3.12-5.242-6.847 0-3.714 1.667-6.873 5.242-6.873 3.55 0 5.218 3.159 5.218 6.873 0 3.726-1.668 6.846-5.218 6.846Z" fill="#fff"/></svg>
